<svg width="512" height="512" viewBox="0 0 512 512" fill="none" xmlns="http://www.w3.org/2000/svg">
<path d="M511.676 498.752L498.876 447.552C492.803 422.714 474.391 402.739 450.129 394.667L356.262 363.392C333.371 353.856 322.897 316.992 320.635 302.997C338.077 288.493 349.3 267.857 351.995 245.333C351.61 241.486 352.518 237.62 354.576 234.346C357.902 233.513 360.625 231.131 361.893 227.946C368.035 213.074 371.89 197.358 373.328 181.333C373.331 180.462 373.224 179.595 373.008 178.752C371.48 172.525 367.819 167.03 362.661 163.221V106.666C362.661 72.298 352.165 58.197 341.114 50.026C339.004 33.472 321.276 0 255.996 0C198.079 2.332 151.661 48.75 149.329 106.667V163.222C144.171 167.031 140.51 172.526 138.982 178.753C138.766 179.596 138.659 180.464 138.662 181.334C140.098 197.367 143.953 213.09 150.097 227.969C151.021 230.984 153.444 233.303 156.497 234.092C157.692 234.689 159.932 237.783 159.932 245.335C162.643 267.923 173.931 288.606 191.463 303.106C189.223 317.079 178.812 353.922 156.562 363.223L61.8631 394.668C37.6201 402.739 19.2201 422.694 13.1381 447.511L0.33808 498.711C-1.11092 504.421 2.34308 510.225 8.05308 511.674C8.90608 511.891 9.78308 512.001 10.6631 512.002H501.33C507.221 512 511.995 507.223 511.994 501.332C511.993 500.461 511.886 499.595 511.676 498.752Z" fill="#0290FF"/>
</svg>
